<svg width="32" height="32" viewBox="0 0 32 32" fill="none" xmlns="http://www.w3.org/2000/svg">
<mask id="mask0_133_16" style="mask-type:alpha" maskUnits="userSpaceOnUse" x="0" y="0" width="32" height="32">
<rect width="32" height="32" fill="#D9D9D9"/>
</mask>
<g mask="url(#mask0_133_16)">
<path d="M19.707 24.4443C18.7912 24.4443 18.0186 24.1282 17.389 23.496C16.7592 22.8635 16.4443 22.0894 16.4443 21.1736C16.4443 20.2578 16.7606 19.4852 17.393 18.8556C18.0252 18.2259 18.7993 17.911 19.7153 17.911C20.6311 17.911 21.4038 18.2272 22.0333 18.8596C22.6629 19.4918 22.9777 20.266 22.9777 21.182C22.9777 22.0977 22.6616 22.8704 22.0293 23.5C21.3969 24.1295 20.6228 24.4443 19.707 24.4443ZM6.22233 29.3333C5.62233 29.3333 5.10189 29.113 4.661 28.6723C4.22033 28.2314 4 27.711 4 27.111V7.11096C4 6.51096 4.22033 5.99063 4.661 5.54996C5.10189 5.10929 5.62233 4.88896 6.22233 4.88896H8.111V2.66663H10.4443V4.88896H21.5557V2.66663H23.889V4.88896H25.7777C26.3777 4.88896 26.8981 5.10929 27.339 5.54996C27.7797 5.99063 28 6.51096 28 7.11096V27.111C28 27.711 27.7797 28.2314 27.339 28.6723C26.8981 29.113 26.3777 29.3333 25.7777 29.3333H6.22233ZM6.22233 27.111H25.7777V13.111H6.22233V27.111ZM6.22233 10.889H25.7777V7.11096H6.22233V10.889Z" fill="#F2F2F2"/>
</g>
</svg>
