<svg width="32" height="32" viewBox="0 0 32 32" fill="none" xmlns="http://www.w3.org/2000/svg">
<mask id="mask0_121_1068" style="mask-type:alpha" maskUnits="userSpaceOnUse" x="0" y="0" width="32" height="32">
<rect width="32" height="32" fill="#D9D9D9"/>
</mask>
<g mask="url(#mask0_121_1068)">
<path d="M15.9998 27.9777L14.4442 26.5777C12.1291 24.4648 10.2152 22.6421 8.7025 21.1097C7.18962 19.5772 5.98506 18.2054 5.08884 16.9943C4.19239 15.7832 3.56462 14.6814 3.2055 13.689C2.84617 12.6963 2.6665 11.6889 2.6665 10.6667C2.6665 8.63466 3.34795 6.93777 4.71084 5.57599C6.07395 4.21422 7.76284 3.53333 9.7775 3.53333C11.0073 3.53333 12.1555 3.81477 13.2222 4.37766C14.2888 4.94077 15.2147 5.74821 15.9998 6.79999C16.8738 5.70377 17.8331 4.88521 18.8775 4.34433C19.922 3.80366 21.0368 3.53333 22.2222 3.53333C24.2368 3.53333 25.9257 4.21422 27.2888 5.57599C28.6517 6.93777 29.3332 8.63466 29.3332 10.6667C29.3332 11.6889 29.1535 12.6963 28.7942 13.689C28.4351 14.6814 27.8073 15.7832 26.9108 16.9943C26.0146 18.2054 24.8101 19.5772 23.2972 21.1097C21.7845 22.6421 19.8706 24.4648 17.5555 26.5777L15.9998 27.9777ZM15.9998 25.0223C18.2107 23.0074 20.0302 21.2797 21.4582 19.839C22.886 18.3981 24.0184 17.1388 24.8555 16.061C25.6924 14.9832 26.2775 14.023 26.6108 13.1803C26.9442 12.3377 27.1108 11.5009 27.1108 10.67C27.1108 9.24555 26.6516 8.07033 25.7332 7.14433C24.8147 6.21855 23.6461 5.75566 22.2272 5.75566C21.1156 5.75566 20.0868 6.0871 19.1408 6.74999C18.1951 7.41288 17.4666 8.31844 16.9555 9.46666H15.0222C14.5257 8.33333 13.8046 7.43144 12.8588 6.76099C11.9128 6.09077 10.8841 5.75566 9.7725 5.75566C8.35361 5.75566 7.18495 6.21855 6.2665 7.14433C5.34806 8.07033 4.88884 9.24677 4.88884 10.6737C4.88884 11.5061 5.0555 12.3463 5.38884 13.1943C5.72217 14.0425 6.30728 15.0092 7.14417 16.0943C7.98128 17.1797 9.11839 18.439 10.5555 19.8723C11.9924 21.3057 13.8072 23.0223 15.9998 25.0223Z" fill="#F7F7F7"/>
</g>
</svg>
