<svg width="32" height="33" viewBox="0 0 32 33" fill="none" xmlns="http://www.w3.org/2000/svg">
<mask id="mask0_121_1058" style="mask-type:alpha" maskUnits="userSpaceOnUse" x="0" y="0" width="32" height="33">
<rect y="0.45459" width="32" height="32" fill="#D9D9D9"/>
</mask>
<g mask="url(#mask0_121_1058)">
<path d="M14.8888 29.7878V18.8654C14.4295 18.6508 14.0554 18.3304 13.7665 17.9044C13.4776 17.4784 13.3332 16.9951 13.3332 16.4544C13.3332 15.7211 13.5943 15.0933 14.1165 14.5711C14.6387 14.0489 15.2665 13.7878 15.9998 13.7878C16.7332 13.7878 17.3609 14.0489 17.8832 14.5711C18.4054 15.0933 18.6665 15.7211 18.6665 16.4544C18.6665 16.9951 18.5221 17.4803 18.2332 17.9101C17.9443 18.3397 17.5702 18.6581 17.1108 18.8654V29.7878H14.8888ZM6.79984 26.1211C5.53317 24.8989 4.52762 23.46 3.78317 21.8044C3.03873 20.1489 2.6665 18.3655 2.6665 16.4544C2.6665 14.61 3.0165 12.8766 3.7165 11.2544C4.4165 9.63221 5.3665 8.22109 6.5665 7.02109C7.7665 5.82109 9.17762 4.87109 10.7998 4.17109C12.4221 3.47109 14.1554 3.12109 15.9998 3.12109C17.8443 3.12109 19.5776 3.47109 21.1998 4.17109C22.8221 4.87109 24.2332 5.82109 25.4332 7.02109C26.6332 8.22109 27.5832 9.63221 28.2832 11.2544C28.9832 12.8766 29.3332 14.61 29.3332 16.4544C29.3332 18.3655 28.961 20.1508 28.2165 21.8101C27.4721 23.4692 26.4665 24.9062 25.1998 26.1211L23.6222 24.5434C24.7035 23.5212 25.5553 22.3193 26.1775 20.9378C26.7997 19.5562 27.1108 18.0618 27.1108 16.4544C27.1108 13.3582 26.0331 10.7323 23.8775 8.57676C21.722 6.4212 19.0961 5.34343 15.9998 5.34343C12.9036 5.34343 10.2777 6.4212 8.12217 8.57676C5.96662 10.7323 4.88884 13.3582 4.88884 16.4544C4.88884 18.0618 5.19995 19.5543 5.82217 20.9321C6.44439 22.3099 7.29995 23.5099 8.38884 24.5321L6.79984 26.1211ZM10.5665 22.3544C9.78873 21.6211 9.1665 20.7489 8.69984 19.7378C8.23317 18.7267 7.99984 17.6322 7.99984 16.4544C7.99984 14.2322 8.77762 12.3433 10.3332 10.7878C11.8887 9.23221 13.7776 8.45443 15.9998 8.45443C18.2221 8.45443 20.1109 9.23221 21.6665 10.7878C23.2221 12.3433 23.9998 14.2322 23.9998 16.4544C23.9998 17.6322 23.7665 18.7285 23.2998 19.7434C22.8332 20.7581 22.2109 21.6284 21.4332 22.3544L19.8442 20.7654C20.4442 20.2248 20.9164 19.5878 21.2608 18.8544C21.6053 18.1211 21.7775 17.3211 21.7775 16.4544C21.7775 14.8544 21.2146 13.4914 20.0888 12.3654C18.9628 11.2397 17.5998 10.6768 15.9998 10.6768C14.3998 10.6768 13.0368 11.2397 11.9108 12.3654C10.7851 13.4914 10.2222 14.8544 10.2222 16.4544C10.2222 17.3284 10.3944 18.1303 10.7388 18.8601C11.0833 19.5897 11.5555 20.2248 12.1555 20.7654L10.5665 22.3544Z" fill="#F2F2F2"/>
</g>
</svg>
