<svg width="32" height="33" viewBox="0 0 32 33" fill="none" xmlns="http://www.w3.org/2000/svg">
<mask id="mask0_133_27" style="mask-type:alpha" maskUnits="userSpaceOnUse" x="0" y="0" width="32" height="33">
<rect y="0.45459" width="32" height="32" fill="#D9D9D9"/>
</mask>
<g mask="url(#mask0_133_27)">
<path d="M4.88884 29.7878C4.28884 29.7878 3.76839 29.5675 3.3275 29.1268C2.88684 28.6859 2.6665 28.1655 2.6665 27.5655V10.8768C2.6665 10.3657 2.82762 9.91381 3.14984 9.52114C3.47206 9.12848 3.8665 8.83959 4.33317 8.65448L20.9775 1.92114L21.6888 3.76548L10.0442 8.45448H27.1108C27.7108 8.45448 28.2313 8.67481 28.6722 9.11548C29.1128 9.55637 29.3332 10.0768 29.3332 10.6768V27.5655C29.3332 28.1655 29.1128 28.6859 28.6722 29.1268C28.2313 29.5675 27.7108 29.7878 27.1108 29.7878H4.88884ZM4.88884 27.5655H27.1108V17.5655H4.88884V27.5655ZM10.6485 25.7211C11.5643 25.7211 12.3369 25.4049 12.9665 24.7725C13.5961 24.1403 13.9108 23.3663 13.9108 22.4505C13.9108 21.5347 13.5947 20.7619 12.9625 20.1321C12.3301 19.5026 11.5559 19.1878 10.6402 19.1878C9.72439 19.1878 8.95173 19.504 8.32217 20.1365C7.69239 20.7687 7.3775 21.5427 7.3775 22.4585C7.3775 23.3743 7.69373 24.147 8.32617 24.7768C8.95839 25.4064 9.7325 25.7211 10.6485 25.7211ZM4.88884 15.3435H21.7775V13.1211H23.9998V15.3435H27.1108V10.6768H4.88884V15.3435Z" fill="#F2F2F2"/>
</g>
</svg>
