<svg width="32" height="32" viewBox="0 0 32 32" fill="none" xmlns="http://www.w3.org/2000/svg">
<mask id="mask0_133_10" style="mask-type:alpha" maskUnits="userSpaceOnUse" x="0" y="0" width="32" height="32">
<rect width="32" height="32" fill="#D9D9D9"/>
</mask>
<g mask="url(#mask0_133_10)">
<path d="M12.0001 23.4223H19.5557C19.8891 23.4223 20.1798 23.3463 20.4278 23.1943C20.676 23.0425 20.8742 22.8222 21.0224 22.5333L23.6891 16.311C23.7335 16.1998 23.7705 16.0517 23.8001 15.8666C23.8296 15.6815 23.8444 15.5334 23.8444 15.4223V14.5333C23.8444 14.2 23.7537 13.9425 23.5724 13.761C23.3909 13.5796 23.1334 13.489 22.8001 13.489H16.0001L16.9111 8.91096C16.9555 8.71852 16.9519 8.53707 16.9001 8.36663C16.8483 8.19618 16.7594 8.04807 16.6334 7.92229L15.8444 7.11096L10.2224 13.2C10.1037 13.3777 9.99997 13.563 9.91108 13.7556C9.82219 13.9481 9.77775 14.1554 9.77775 14.3776V21.2C9.77775 21.7851 9.99819 22.3017 10.4391 22.75C10.8797 23.1982 11.4001 23.4223 12.0001 23.4223ZM16.0001 29.3333C14.1705 29.3333 12.4446 28.9833 10.8224 28.2833C9.20019 27.5833 7.7853 26.6296 6.57775 25.4223C5.37041 24.2147 4.41675 22.7998 3.71675 21.1776C3.01675 19.5554 2.66675 17.8295 2.66675 16C2.66675 14.1555 3.01675 12.4222 3.71675 10.8C4.41675 9.17774 5.37041 7.76663 6.57775 6.56663C7.7853 5.36663 9.20019 4.41663 10.8224 3.71663C12.4446 3.01663 14.1705 2.66663 16.0001 2.66663C17.8445 2.66663 19.5779 3.01663 21.2001 3.71663C22.8223 4.41663 24.2334 5.36663 25.4334 6.56663C26.6334 7.76663 27.5834 9.17774 28.2834 10.8C28.9834 12.4222 29.3334 14.1555 29.3334 16C29.3334 17.8295 28.9834 19.5554 28.2834 21.1776C27.5834 22.7998 26.6334 24.2147 25.4334 25.4223C24.2334 26.6296 22.8223 27.5833 21.2001 28.2833C19.5779 28.9833 17.8445 29.3333 16.0001 29.3333ZM16.0001 27.111C19.0963 27.111 21.7222 26.0295 23.8777 23.8666C26.0333 21.7037 27.1111 19.0815 27.1111 16C27.1111 12.9037 26.0333 10.2778 23.8777 8.12229C21.7222 5.96674 19.0963 4.88896 16.0001 4.88896C12.9185 4.88896 10.2963 5.96674 8.13341 8.12229C5.97053 10.2778 4.88908 12.9037 4.88908 16C4.88908 19.0815 5.97053 21.7037 8.13341 23.8666C10.2963 26.0295 12.9185 27.111 16.0001 27.111Z" fill="#F2F2F2"/>
</g>
</svg>
