<svg width="25" height="24" viewBox="0 0 25 24" fill="none" xmlns="http://www.w3.org/2000/svg">
<g clip-path="url(#clip0_121_1106)">
<path d="M20.027 4.79902C21.239 7.40702 20.964 10.477 19.622 12.972C18.521 15.019 16.878 16.712 15.524 18.586C14.905 19.444 14.28 20.336 13.8549 21.313C13.714 21.638 13.592 21.971 13.472 22.305C13.351 22.638 13.248 22.978 13.132 23.313C13.023 23.627 12.896 23.997 12.505 24H12.498C12.032 23.999 11.919 23.47 11.803 23.113C11.519 22.239 11.222 21.4 10.784 20.588C10.274 19.644 9.63895 18.771 8.99395 17.917L20.027 4.79902ZM9.04495 7.70502L5.08595 12.412C5.80995 13.952 6.90695 15.275 7.95695 16.592C8.20428 16.902 8.44995 17.214 8.69395 17.528L13.678 11.603L13.649 11.613C11.908 12.214 9.95795 11.322 9.25695 9.62602C9.16124 9.39574 9.09115 9.15563 9.04795 8.91002C8.98495 8.47302 8.97095 8.14902 9.04395 7.71202L9.04495 7.70502ZM5.99195 3.14902L5.98895 3.15302C4.04195 5.61902 3.70795 9.03302 4.87195 11.923L9.65695 6.23402L9.59895 6.18402L5.99195 3.14902ZM15.161 0.436019L11.3229 4.99902L11.35 4.98902C12.95 4.43802 14.7529 5.13902 15.57 6.61502C15.7459 6.93402 15.893 7.29802 15.9469 7.66002C16.0149 8.10602 16.0319 8.43302 15.959 8.88002L15.956 8.89602L19.792 4.33502C18.7897 2.50654 17.1417 1.11742 15.17 0.439019L15.161 0.436019ZM9.96595 5.86802L14.662 0.285019L14.615 0.273019C13.9201 0.0902536 13.2044 -0.00151361 12.486 1.88801e-05C11.3226 0.0109758 10.174 0.262344 9.11239 0.738339C8.05078 1.21433 7.09905 1.90468 6.31695 2.76602L6.30095 2.78402L9.96595 5.86802Z" fill="black"/>
</g>
<defs>
<clipPath id="clip0_121_1106">
<rect width="24" height="24" fill="white" transform="translate(0.5)"/>
</clipPath>
</defs>
</svg>
