<svg width="33" height="32" viewBox="0 0 33 32" fill="none" xmlns="http://www.w3.org/2000/svg">
<mask id="mask0_118_982" style="mask-type:alpha" maskUnits="userSpaceOnUse" x="0" y="0" width="33" height="32">
<rect x="0.5" width="32" height="32" fill="#D9D9D9"/>
</mask>
<g mask="url(#mask0_118_982)">
<path d="M16.4998 27.9778L14.9442 26.5778C12.6291 24.4649 10.7152 22.6422 9.2025 21.1098C7.68962 19.5773 6.48506 18.2056 5.58884 16.9944C4.69239 15.7833 4.06462 14.6816 3.7055 13.6891C3.34617 12.6964 3.1665 11.689 3.1665 10.6668C3.1665 8.63478 3.84795 6.93789 5.21084 5.57612C6.57395 4.21434 8.26284 3.53345 10.2775 3.53345C11.5073 3.53345 12.6555 3.81489 13.7222 4.37778C14.7888 4.94089 15.7147 5.74834 16.4998 6.80011C17.3738 5.70389 18.3331 4.88534 19.3775 4.34445C20.422 3.80378 21.5368 3.53345 22.7222 3.53345C24.7368 3.53345 26.4257 4.21434 27.7888 5.57612C29.1517 6.93789 29.8332 8.63478 29.8332 10.6668C29.8332 11.689 29.6535 12.6964 29.2942 13.6891C28.9351 14.6816 28.3073 15.7833 27.4108 16.9944C26.5146 18.2056 25.3101 19.5773 23.7972 21.1098C22.2845 22.6422 20.3706 24.4649 18.0555 26.5778L16.4998 27.9778ZM16.4998 25.0224C18.7107 23.0076 20.5302 21.2798 21.9582 19.8391C23.386 18.3982 24.5184 17.1389 25.3555 16.0611C26.1924 14.9833 26.7775 14.0231 27.1108 13.1804C27.4442 12.3378 27.6108 11.501 27.6108 10.6701C27.6108 9.24567 27.1516 8.07045 26.2332 7.14445C25.3147 6.21867 24.1461 5.75578 22.7272 5.75578C21.6156 5.75578 20.5868 6.08723 19.6408 6.75011C18.6951 7.413 17.9666 8.31856 17.4555 9.46678H15.5222C15.0257 8.33345 14.3046 7.43156 13.3588 6.76111C12.4128 6.09089 11.3841 5.75578 10.2725 5.75578C8.85361 5.75578 7.68495 6.21867 6.7665 7.14445C5.84806 8.07045 5.38884 9.24689 5.38884 10.6738C5.38884 11.5062 5.5555 12.3464 5.88884 13.1944C6.22217 14.0427 6.80728 15.0093 7.64417 16.0944C8.48128 17.1798 9.61839 18.4391 11.0555 19.8724C12.4924 21.3058 14.3072 23.0224 16.4998 25.0224Z" fill="#F7F7F7"/>
</g>
</svg>
