<svg width="33" height="32" viewBox="0 0 33 32" fill="none" xmlns="http://www.w3.org/2000/svg">
<mask id="mask0_121_1134" style="mask-type:alpha" maskUnits="userSpaceOnUse" x="0" y="0" width="33" height="32">
<rect x="0.5" width="32" height="32" fill="#D9D9D9"/>
</mask>
<g mask="url(#mask0_121_1134)">
<path d="M16.4002 29.3332C15.4668 29.3332 14.5613 29.2332 13.6835 29.0332C12.8057 28.8332 12.0113 28.5776 11.3002 28.2665C10.2779 27.8221 9.44461 27.2832 8.80016 26.6498C8.15572 26.0165 7.8335 25.3109 7.8335 24.5332V16.8332C7.8335 16.1443 8.09461 15.5109 8.61683 14.9332C9.13905 14.3554 9.81127 13.8443 10.6335 13.3998C11.4779 12.9554 12.4057 12.6109 13.4168 12.3665C14.4279 12.1221 15.4557 11.9998 16.5002 11.9998C17.5446 11.9998 18.5724 12.1221 19.5835 12.3665C20.5946 12.6109 21.5224 12.9554 22.3668 13.3998C23.2113 13.8443 23.8891 14.3554 24.4002 14.9332C24.9113 15.5109 25.1668 16.1443 25.1668 16.8332V24.5332C25.1668 24.9109 25.0835 25.2776 24.9168 25.6332C24.7502 25.9887 24.5113 26.3221 24.2002 26.6332C23.8891 26.9443 23.5279 27.2387 23.1168 27.5165C22.7057 27.7943 22.2446 28.0443 21.7335 28.2665C21.7557 28.1554 21.7891 27.8443 21.8335 27.3332C21.8335 26.0443 21.3779 24.9443 20.4668 24.0332C19.5557 23.1221 18.4557 22.6665 17.1668 22.6665C16.2113 22.6665 15.3668 22.9221 14.6335 23.4332C13.9002 23.9443 13.3446 24.5998 12.9668 25.3998C13.6779 25.5776 14.3279 25.6998 14.9168 25.7665C15.5057 25.8332 16.0224 25.8665 16.4668 25.8665C16.8446 25.8665 17.1502 25.8554 17.3835 25.8332C17.6168 25.8109 17.7668 25.7998 17.8335 25.7998V29.2665C17.5891 29.2887 17.3502 29.3054 17.1168 29.3165C16.8835 29.3276 16.6446 29.3332 16.4002 29.3332ZM20.5002 21.9998C21.2335 21.9998 21.8613 21.7387 22.3835 21.2165C22.9057 20.6943 23.1668 20.0665 23.1668 19.3332C23.1668 18.5998 22.9057 17.9721 22.3835 17.4498C21.8613 16.9276 21.2335 16.6665 20.5002 16.6665C19.7668 16.6665 19.1391 16.9276 18.6168 17.4498C18.0946 17.9721 17.8335 18.5998 17.8335 19.3332C17.8335 20.0665 18.0946 20.6943 18.6168 21.2165C19.1391 21.7387 19.7668 21.9998 20.5002 21.9998ZM16.5002 10.6665C17.6113 10.6665 18.5557 10.2832 19.3335 9.5165C20.1113 8.74984 20.5002 7.79984 20.5002 6.6665C20.5002 5.55539 20.1113 4.61095 19.3335 3.83317C18.5557 3.05539 17.6113 2.6665 16.5002 2.6665C15.3668 2.6665 14.4168 3.05539 13.6502 3.83317C12.8835 4.61095 12.5002 5.55539 12.5002 6.6665C12.5002 7.79984 12.8835 8.74984 13.6502 9.5165C14.4168 10.2832 15.3668 10.6665 16.5002 10.6665Z" fill="#F7F7F7"/>
</g>
</svg>
