<svg width="33" height="32" viewBox="0 0 33 32" fill="none" xmlns="http://www.w3.org/2000/svg">
<mask id="mask0_118_920" style="mask-type:alpha" maskUnits="userSpaceOnUse" x="0" y="0" width="33" height="32">
<rect x="0.5" width="32" height="32" fill="#D9D9D9"/>
</mask>
<g mask="url(#mask0_118_920)">
<path d="M21.4108 21.3333V17.8557L19.8222 14.9557C19.5035 15.0223 19.2442 15.1852 19.0442 15.4443C18.8442 15.7037 18.7442 16 18.7442 16.3333V23.9223L22.0222 29.3333H19.4332L16.5222 24.5557V16.3333C16.5222 15.5851 16.7258 14.911 17.1332 14.311C17.5405 13.711 18.0775 13.2666 18.7442 12.9777L16.6555 9.16667C16.2111 8.32223 16.0239 7.43145 16.0942 6.49434C16.1646 5.55745 16.5257 4.76301 17.1775 4.11101L19.2665 2.02234L28.5108 12.8223L29.8555 29.3333H27.6108L26.3332 13.689L19.1442 5.28901L18.7665 5.66667C18.485 5.94823 18.3164 6.28156 18.2608 6.66667C18.2053 7.05178 18.2664 7.41478 18.4442 7.75567L23.6332 17.289V21.3333H21.4108ZM9.38884 21.3333V17.289L14.5775 7.75567C14.7553 7.41478 14.8164 7.05178 14.7608 6.66667C14.7053 6.28156 14.5368 5.94823 14.2555 5.66667L13.8775 5.28901L6.68884 13.689L5.41084 29.3333H3.1665L4.51084 12.8223L13.7555 2.02234L15.8442 4.11101C16.4962 4.76301 16.8573 5.55745 16.9275 6.49434C16.998 7.43145 16.811 8.32223 16.3665 9.16667L14.2775 12.9777C14.9442 13.2666 15.4813 13.711 15.8888 14.311C16.2962 14.911 16.4998 15.5851 16.4998 16.3333V24.5557L13.5888 29.3333H10.9998L14.2775 23.9223V16.3333C14.2775 16 14.1775 15.7037 13.9775 15.4443C13.7775 15.1852 13.5183 15.0223 13.1998 14.9557L11.6108 17.8557V21.3333H9.38884Z" fill="#F7F7F7"/>
</g>
</svg>
