<svg width="32" height="32" viewBox="0 0 32 32" fill="none" xmlns="http://www.w3.org/2000/svg">
<mask id="mask0_122_10" style="mask-type:alpha" maskUnits="userSpaceOnUse" x="0" y="0" width="32" height="32">
<rect width="32" height="32" fill="#D9D9D9"/>
</mask>
<g mask="url(#mask0_122_10)">
<path d="M11.4665 29.811C10.4148 29.811 9.47955 29.511 8.66088 28.911C7.84244 28.311 7.24799 27.5221 6.87755 26.5443C6.522 27.0852 6.08311 27.5057 5.56088 27.8057C5.03866 28.1057 4.44422 28.2557 3.77755 28.2557C2.70355 28.2557 1.80911 27.8815 1.09422 27.1333C0.37955 26.3851 0.0222168 25.4925 0.0222168 24.4557C0.0222168 23.4112 0.351772 22.5501 1.01088 21.8723C1.67022 21.1945 2.50733 20.8296 3.52222 20.7776C3.15177 20.3332 2.86466 19.8314 2.66088 19.2723C2.45733 18.713 2.35555 18.1408 2.35555 17.5557C2.35555 16.6963 2.57588 15.8925 3.01655 15.1443C3.45722 14.3963 4.08133 13.7927 4.88888 13.3333C4.99999 13.6593 5.14255 14.0093 5.31655 14.3833C5.49055 14.7573 5.67755 15.0814 5.87755 15.3557C5.47755 15.6297 5.16277 15.9648 4.93322 16.361C4.70366 16.7574 4.58888 17.1741 4.58888 17.611C4.58888 18.9148 5.11844 19.7297 6.17755 20.0557C7.23688 20.3814 8.25177 20.6407 9.22222 20.8333L9.67755 21.611C9.41844 22.3665 9.20366 22.9943 9.03322 23.4943C8.86277 23.9943 8.77755 24.4518 8.77755 24.8667C8.77755 25.5927 9.04611 26.2279 9.58322 26.7723C10.1203 27.3168 10.7556 27.589 11.4889 27.589C12.3778 27.589 13.1111 27.2074 13.6889 26.4443C14.2667 25.6814 14.737 24.7778 15.0999 23.7333C15.4628 22.6889 15.7424 21.6333 15.9389 20.5667C16.1351 19.5 16.2962 18.6741 16.4222 18.089L18.5776 18.6776C18.3776 19.6481 18.1406 20.7703 17.8666 22.0443C17.5926 23.3185 17.2018 24.5315 16.6942 25.6833C16.1869 26.8351 15.5202 27.811 14.6942 28.611C13.8684 29.411 12.7926 29.811 11.4665 29.811ZM3.79988 26.0333C4.23699 26.0333 4.60555 25.8833 4.90555 25.5833C5.20555 25.2833 5.35555 24.9148 5.35555 24.4777C5.35555 24.0408 5.20555 23.6723 4.90555 23.3723C4.60555 23.0723 4.23699 22.9223 3.79988 22.9223C3.36277 22.9223 2.99422 23.0723 2.69422 23.3723C2.39422 23.6723 2.24422 24.0408 2.24422 24.4777C2.24422 24.9148 2.39422 25.2833 2.69422 25.5833C2.99422 25.8833 3.36277 26.0333 3.79988 26.0333ZM13.6222 20.0557C12.6147 19.1592 11.698 18.324 10.8722 17.55C10.0462 16.776 9.33688 16.0204 8.74422 15.2833C8.15177 14.5462 7.69444 13.8165 7.37222 13.0943C7.04999 12.3721 6.88888 11.611 6.88888 10.811C6.88888 9.44076 7.36477 8.27965 8.31655 7.32765C9.26833 6.37587 10.4294 5.89998 11.7999 5.89998C11.9628 5.89998 12.1147 5.90554 12.2556 5.91665C12.3962 5.92776 12.5407 5.9481 12.6889 5.97765C12.5258 5.65187 12.4072 5.36298 12.3332 5.11098C12.2592 4.85921 12.2222 4.60365 12.2222 4.34432C12.2222 3.29254 12.5889 2.39998 13.3222 1.66665C14.0556 0.933317 14.9481 0.56665 15.9999 0.56665C17.0517 0.56665 17.9442 0.933317 18.6776 1.66665C19.4109 2.39998 19.7776 3.29254 19.7776 4.34432C19.7776 4.58876 19.7442 4.83876 19.6776 5.09432C19.6109 5.34987 19.4887 5.64065 19.3109 5.96665C19.4591 5.93709 19.6036 5.91854 19.7442 5.91098C19.8851 5.90365 20.037 5.89998 20.1999 5.89998C21.4888 5.89998 22.5813 6.31298 23.4776 7.13898C24.374 7.96476 24.8962 8.98876 25.0442 10.211C24.7036 10.1741 24.3313 10.1593 23.9276 10.1667C23.524 10.174 23.1481 10.1999 22.7999 10.2443C22.6739 9.62965 22.3794 9.12232 21.9166 8.72232C21.4537 8.32232 20.8814 8.12232 20.1999 8.12232C19.3926 8.12232 18.7573 8.35009 18.2942 8.80565C17.8313 9.26121 17.2073 9.94454 16.4222 10.8557H15.5442C14.7369 9.90009 14.1018 9.20565 13.6389 8.77232C13.1758 8.33898 12.5628 8.12232 11.7999 8.12232C11.0294 8.12232 10.3887 8.37787 9.87755 8.88898C9.36644 9.40009 9.11088 10.0408 9.11088 10.811C9.11088 11.337 9.25533 11.8759 9.54422 12.4277C9.83311 12.9797 10.2424 13.5685 10.7722 14.1943C11.3018 14.8203 11.9424 15.4814 12.6942 16.1777C13.4462 16.8741 14.2851 17.6371 15.2109 18.4667L13.6222 20.0557ZM15.9999 5.89998C16.437 5.89998 16.8056 5.74998 17.1056 5.44998C17.4056 5.14998 17.5556 4.78143 17.5556 4.34432C17.5556 3.90743 17.4056 3.53898 17.1056 3.23898C16.8056 2.93898 16.437 2.78898 15.9999 2.78898C15.5628 2.78898 15.1942 2.93898 14.8942 3.23898C14.5942 3.53898 14.4442 3.90743 14.4442 4.34432C14.4442 4.78143 14.5942 5.14998 14.8942 5.44998C15.1942 5.74998 15.5628 5.89998 15.9999 5.89998ZM20.4999 29.8333C20.011 29.8333 19.5277 29.7592 19.0499 29.611C18.5721 29.463 18.111 29.2371 17.6666 28.9333C17.8666 28.6518 18.0666 28.3295 18.2666 27.9667C18.4666 27.6038 18.6369 27.2668 18.7776 26.9557C19.0664 27.1703 19.3591 27.3295 19.6556 27.4333C19.9518 27.5371 20.2518 27.589 20.5556 27.589C21.3111 27.589 21.95 27.3168 22.4722 26.7723C22.9944 26.2279 23.2556 25.589 23.2556 24.8556C23.2556 24.4185 23.1667 23.9519 22.9889 23.4557C22.8111 22.9592 22.6 22.3407 22.3556 21.6L22.8109 20.8223C23.8036 20.6445 24.824 20.3927 25.8722 20.0667C26.9202 19.7407 27.4442 18.9259 27.4442 17.6223C27.4442 16.6741 27.098 15.9741 26.4056 15.5223C25.7129 15.0703 24.948 14.8443 24.1109 14.8443C23.1776 14.8443 22.0776 15.0221 20.8109 15.3777C19.5442 15.7332 18.0702 16.1888 16.3889 16.7443L15.8222 14.589C17.5258 14.0334 19.0553 13.5668 20.4109 13.189C21.7664 12.8112 23.0035 12.6223 24.1222 12.6223C25.5813 12.6223 26.8702 13.0593 27.9889 13.9333C29.1073 14.8073 29.6666 16.0295 29.6666 17.6C29.6666 18.1851 29.5647 18.7537 29.3609 19.3057C29.1573 19.8574 28.8703 20.3555 28.4999 20.8C29.4999 20.8518 30.3332 21.2203 30.9999 21.9057C31.6666 22.5908 31.9999 23.4481 31.9999 24.4777C31.9999 25.5148 31.6424 26.4074 30.9276 27.1557C30.2129 27.9037 29.3184 28.2777 28.2442 28.2777C27.5924 28.2777 26.998 28.1277 26.4609 27.8277C25.924 27.5277 25.4851 27.1073 25.1442 26.5667C24.7591 27.5444 24.1573 28.3333 23.3389 28.9333C22.5202 29.5333 21.5739 29.8333 20.4999 29.8333ZM28.2556 26.0557C28.6778 26.0557 29.037 25.9057 29.3332 25.6056C29.6294 25.3057 29.7776 24.9371 29.7776 24.5C29.7776 24.0778 29.6239 23.7074 29.3166 23.389C29.0092 23.0703 28.6444 22.911 28.2222 22.911C27.8 22.911 27.4351 23.0648 27.1276 23.3723C26.8202 23.6797 26.6666 24.0444 26.6666 24.4667C26.6666 24.8889 26.8258 25.2592 27.1442 25.5777C27.4629 25.8963 27.8333 26.0557 28.2556 26.0557Z" fill="#F7F7F7"/>
</g>
</svg>
