<svg width="33" height="32" viewBox="0 0 33 32" fill="none" xmlns="http://www.w3.org/2000/svg">
<mask id="mask0_118_976" style="mask-type:alpha" maskUnits="userSpaceOnUse" x="0" y="0" width="33" height="32">
<rect x="0.5" width="32" height="32" fill="#D9D9D9"/>
</mask>
<g mask="url(#mask0_118_976)">
<path d="M1.78906 26.6666V23.3333C1.78906 22.5628 1.98717 21.8609 2.3834 21.2276C2.77962 20.5943 3.32217 20.1184 4.01106 19.7999C5.55195 19.0962 6.99273 18.5832 8.3334 18.2609C9.67406 17.9387 11.0482 17.7776 12.4557 17.7776C13.8631 17.7776 15.2334 17.9387 16.5667 18.2609C17.9001 18.5832 19.3371 19.0962 20.8777 19.7999C21.5666 20.1184 22.113 20.5943 22.5167 21.2276C22.9205 21.8609 23.1224 22.5628 23.1224 23.3333V26.6666H1.78906ZM25.3444 26.6666V23.2443C25.3444 21.9852 25.0166 20.9056 24.3611 20.0056C23.7055 19.1056 22.826 18.3629 21.7224 17.7776C23.1224 17.9407 24.4408 18.1907 25.6777 18.5276C26.9148 18.8647 27.9593 19.2592 28.8111 19.7109C29.5666 20.1407 30.1555 20.6537 30.5777 21.2499C31 21.8462 31.2111 22.511 31.2111 23.2443V26.6666H25.3444ZM12.4557 15.9776C10.9891 15.9776 9.77051 15.4925 8.80006 14.5223C7.82962 13.5518 7.3444 12.3333 7.3444 10.8666C7.3444 9.39995 7.82962 8.18139 8.80006 7.21095C9.77051 6.24073 10.9891 5.75562 12.4557 5.75562C13.9224 5.75562 15.1408 6.24073 16.1111 7.21095C17.0815 8.18139 17.5667 9.39995 17.5667 10.8666C17.5667 12.3333 17.0815 13.5518 16.1111 14.5223C15.1408 15.4925 13.9224 15.9776 12.4557 15.9776ZM24.9001 10.8666C24.9001 12.3333 24.4148 13.5518 23.4444 14.5223C22.4742 15.4925 21.2557 15.9776 19.7891 15.9776C19.5446 15.9776 19.2594 15.9573 18.9334 15.9166C18.6074 15.8759 18.3222 15.8148 18.0777 15.7333C18.6333 15.1259 19.0574 14.4074 19.3501 13.5776C19.6427 12.7481 19.7891 11.8444 19.7891 10.8666C19.7891 9.88884 19.6427 8.99995 19.3501 8.19995C19.0574 7.39995 18.6333 6.66662 18.0777 5.99995C18.3444 5.91839 18.6296 5.85728 18.9334 5.81662C19.2372 5.77595 19.5224 5.75562 19.7891 5.75562C21.2557 5.75562 22.4742 6.24073 23.4444 7.21095C24.4148 8.18139 24.9001 9.39995 24.9001 10.8666ZM4.01106 24.4443H20.9001V23.3333C20.9001 23.0148 20.8093 22.7112 20.6277 22.4223C20.4464 22.1334 20.2186 21.9259 19.9444 21.7999C18.4777 21.1259 17.1777 20.6574 16.0444 20.3943C14.9111 20.1314 13.7148 19.9999 12.4557 19.9999C11.1964 19.9999 9.9964 20.1314 8.85573 20.3943C7.71484 20.6574 6.41106 21.1259 4.9444 21.7999C4.6704 21.9259 4.4464 22.1334 4.2724 22.4223C4.09817 22.7112 4.01106 23.0148 4.01106 23.3333V24.4443ZM12.4557 13.7556C13.278 13.7556 13.965 13.4796 14.5167 12.9276C15.0685 12.3758 15.3444 11.6888 15.3444 10.8666C15.3444 10.0444 15.0685 9.35739 14.5167 8.80562C13.965 8.25362 13.278 7.97762 12.4557 7.97762C11.6335 7.97762 10.9464 8.25362 10.3944 8.80562C9.84262 9.35739 9.56673 10.0444 9.56673 10.8666C9.56673 11.6888 9.84262 12.3758 10.3944 12.9276C10.9464 13.4796 11.6335 13.7556 12.4557 13.7556Z" fill="#F7F7F7"/>
</g>
</svg>
