<svg width="32" height="32" viewBox="0 0 32 32" fill="none" xmlns="http://www.w3.org/2000/svg">
<mask id="mask0_121_1116" style="mask-type:alpha" maskUnits="userSpaceOnUse" x="0" y="0" width="32" height="32">
<rect width="32" height="32" fill="#D9D9D9"/>
</mask>
<g mask="url(#mask0_121_1116)">
<path d="M4.88884 27.9998C4.28884 27.9998 3.76839 27.7795 3.3275 27.3388C2.88684 26.8979 2.6665 26.3775 2.6665 25.7775V10.2222C2.6665 9.62217 2.88684 9.10173 3.3275 8.66084C3.76839 8.22017 4.28884 7.99984 4.88884 7.99984H10.6665V4.88884C10.6665 4.28884 10.8868 3.76839 11.3275 3.3275C11.7684 2.88684 12.2888 2.6665 12.8888 2.6665H19.1108C19.7108 2.6665 20.2313 2.88684 20.6722 3.3275C21.1128 3.76839 21.3332 4.28884 21.3332 4.88884V7.99984H27.1108C27.7108 7.99984 28.2313 8.22017 28.6722 8.66084C29.1128 9.10173 29.3332 9.62217 29.3332 10.2222V25.7775C29.3332 26.3775 29.1128 26.8979 28.6722 27.3388C28.2313 27.7795 27.7108 27.9998 27.1108 27.9998H4.88884ZM4.88884 25.7775H27.1108V10.2222H4.88884V25.7775ZM12.8888 7.99984H19.1108V4.88884H12.8888V7.99984Z" fill="#F7F7F7"/>
</g>
</svg>
