<svg width="33" height="32" viewBox="0 0 33 32" fill="none" xmlns="http://www.w3.org/2000/svg">
<mask id="mask0_118_814" style="mask-type:alpha" maskUnits="userSpaceOnUse" x="0" y="0" width="33" height="32">
<rect x="0.5" width="32" height="32" fill="#D9D9D9"/>
</mask>
<g mask="url(#mask0_118_814)">
<path d="M10.8 19.0333C11.4444 19.6777 12.2333 20 13.1667 20C14.1 20 14.8889 19.6777 15.5333 19.0333L20.8667 13.7C21.5111 13.0555 21.8333 12.2666 21.8333 11.3333C21.8333 10.4 21.5111 9.61107 20.8667 8.96663C20.2222 8.32218 19.4333 7.99996 18.5 7.99996C17.5667 7.99996 16.7778 8.32218 16.1333 8.96663C15.3111 8.67774 14.5 8.61107 13.7 8.76663C12.9 8.92218 12.2222 9.27774 11.6667 9.83329C11.1111 10.3888 10.7556 11.0666 10.6 11.8666C10.4444 12.6666 10.5111 13.4777 10.8 14.3C10.1556 14.9444 9.83333 15.7333 9.83333 16.6666C9.83333 17.6 10.1556 18.3889 10.8 19.0333ZM8.5 29.3333V23.6C7.23333 22.4444 6.25 21.0944 5.55 19.55C4.85 18.0055 4.5 16.3777 4.5 14.6666C4.5 11.3333 5.66667 8.49996 8 6.16663C10.3333 3.83329 13.1667 2.66663 16.5 2.66663C19.2778 2.66663 21.7389 3.48329 23.8833 5.11663C26.0278 6.74996 27.4222 8.87774 28.0667 11.5L29.8667 18.6223C29.9629 18.9703 29.8999 19.287 29.6777 19.5723C29.4554 19.8574 29.1592 20 28.789 20H25.8333V24.4443C25.8333 25.0554 25.6158 25.5786 25.1807 26.014C24.7453 26.4491 24.2221 26.6666 23.611 26.6666H20.5V29.3333H18.2777V24.4443H23.611V17.7776H27.3443L25.9223 12.0556C25.3963 9.94452 24.2556 8.22229 22.5 6.88896C20.7444 5.55563 18.7444 4.88896 16.5 4.88896C13.7889 4.88896 11.4814 5.82963 9.57767 7.71096C7.67411 9.59252 6.72233 11.8854 6.72233 14.5896C6.72233 15.9885 7.008 17.3174 7.57933 18.5763C8.15089 19.8352 8.96144 20.9542 10.011 21.9333L10.7223 22.6V29.3333H8.5Z" fill="#F7F7F7"/>
</g>
</svg>
