<svg width="33" height="32" viewBox="0 0 33 32" fill="none" xmlns="http://www.w3.org/2000/svg">
<mask id="mask0_118_872" style="mask-type:alpha" maskUnits="userSpaceOnUse" x="0" y="0" width="33" height="32">
<rect x="0.5" width="32" height="32" fill="#D9D9D9"/>
</mask>
<g mask="url(#mask0_118_872)">
<path d="M16.4998 28C16.0998 28 15.7165 27.9278 15.3498 27.7833C14.9832 27.6389 14.6554 27.4222 14.3665 27.1333L5.43317 18.1667C4.65539 17.3889 4.08317 16.5 3.7165 15.5C3.34984 14.5 3.1665 13.4556 3.1665 12.3667C3.1665 10.0778 3.91095 8.11111 5.39984 6.46667C6.88873 4.82222 8.74428 4 10.9665 4C12.0332 4 13.0387 4.21111 13.9832 4.63333C14.9276 5.05556 15.7665 5.64444 16.4998 6.4C17.2109 5.64444 18.0387 5.05556 18.9832 4.63333C19.9276 4.21111 20.9332 4 21.9998 4C24.2221 4 26.0832 4.82222 27.5832 6.46667C29.0832 8.11111 29.8332 10.0667 29.8332 12.3333C29.8332 13.4222 29.6443 14.4667 29.2665 15.4667C28.8887 16.4667 28.3221 17.3556 27.5665 18.1333L18.5998 27.1333C18.311 27.4222 17.9887 27.6389 17.6332 27.7833C17.2776 27.9278 16.8998 28 16.4998 28ZM17.8395 10.889C18.0279 10.889 18.1999 10.9371 18.3555 11.0333C18.5111 11.1296 18.6444 11.2518 18.7555 11.4L21.0888 14.889H27.1138C27.2832 14.4752 27.4103 14.0553 27.4952 13.6293C27.5798 13.2033 27.6222 12.7713 27.6222 12.3333C27.6073 10.6816 27.0669 9.25378 26.0012 8.05C24.9352 6.84622 23.6028 6.24433 22.0042 6.24433C21.2531 6.24433 20.5313 6.39622 19.8388 6.7C19.1462 7.00378 18.5443 7.43344 18.0332 7.989L17.1332 8.95567C17.0516 9.04456 16.9591 9.11678 16.8555 9.17233C16.7517 9.22789 16.6332 9.25567 16.4998 9.25567C16.3665 9.25567 16.2433 9.22867 16.1302 9.17467C16.0171 9.12089 15.9181 9.04789 15.8332 8.95567L14.9332 7.989C14.4181 7.43611 13.8171 7.00344 13.1302 6.691C12.4433 6.37856 11.7221 6.22233 10.9665 6.22233C9.37295 6.22233 8.04495 6.82744 6.9825 8.03767C5.92006 9.24789 5.38884 10.6798 5.38884 12.3333C5.38884 12.7736 5.4295 13.2077 5.51084 13.6357C5.59239 14.0637 5.71573 14.4814 5.88084 14.889H12.4998C12.6861 14.889 12.8631 14.9342 13.0308 15.0247C13.1984 15.1151 13.3288 15.2328 13.4222 15.3777L14.8332 17.511L16.7665 11.6667C16.8418 11.4444 16.9783 11.2592 17.1758 11.111C17.3736 10.963 17.5948 10.889 17.8395 10.889ZM18.1665 14.489L16.2108 20.3333C16.1373 20.5556 15.9992 20.7408 15.7965 20.889C15.5938 21.037 15.3727 21.111 15.1332 21.111C14.9405 21.111 14.7664 21.0629 14.6108 20.9667C14.4553 20.8704 14.3294 20.7482 14.2332 20.6L11.8998 17.111H7.52217L15.9555 25.5443C16.0444 25.6332 16.1299 25.6943 16.2122 25.7277C16.2944 25.761 16.3903 25.7777 16.4998 25.7777C16.6094 25.7777 16.7053 25.761 16.7875 25.7277C16.8697 25.6943 16.9553 25.6332 17.0442 25.5443L25.4442 17.111H20.4998C20.3072 17.111 20.1331 17.0629 19.9775 16.9667C19.822 16.8704 19.6849 16.7482 19.5665 16.6L18.1665 14.489Z" fill="#F7F7F7"/>
</g>
</svg>
