<svg width="33" height="32" viewBox="0 0 33 32" fill="none" xmlns="http://www.w3.org/2000/svg">
<mask id="mask0_118_988" style="mask-type:alpha" maskUnits="userSpaceOnUse" x="0" y="0" width="33" height="32">
<rect x="0.5" width="32" height="32" fill="#D9D9D9"/>
</mask>
<g mask="url(#mask0_118_988)">
<path d="M24.5015 7.84427C23.8115 7.84427 23.2202 7.5986 22.7275 7.10727C22.2351 6.61593 21.9888 6.02515 21.9888 5.33493C21.9888 4.64493 22.2345 4.0536 22.7258 3.56093C23.2172 3.06849 23.808 2.82227 24.4982 2.82227C25.1882 2.82227 25.7795 3.06793 26.2722 3.55927C26.7646 4.0506 27.0108 4.64138 27.0108 5.3316C27.0108 6.0216 26.7652 6.61293 26.2738 7.1056C25.7825 7.59804 25.1917 7.84427 24.5015 7.84427ZM22.7222 29.3333V18.3109C22.7222 17.5703 22.5351 16.9036 22.1608 16.3109C21.7868 15.7185 21.2665 15.274 20.5998 14.9776L21.8998 11.1666C22.0776 10.611 22.4054 10.1666 22.8832 9.83327C23.3609 9.49993 23.8998 9.33327 24.4998 9.33327C25.0998 9.33327 25.6387 9.49993 26.1165 9.83327C26.5943 10.1666 26.9221 10.611 27.0998 11.1666L30.4998 21.1109H26.9442V29.3333H22.7222ZM17.0555 15.3333C16.5 15.3333 16.0277 15.1388 15.6388 14.7499C15.2499 14.361 15.0555 13.8888 15.0555 13.3333C15.0555 12.7777 15.2499 12.3055 15.6388 11.9166C16.0277 11.5277 16.5 11.3333 17.0555 11.3333C17.6111 11.3333 18.0833 11.5277 18.4722 11.9166C18.8611 12.3055 19.0555 12.7777 19.0555 13.3333C19.0555 13.8888 18.8611 14.361 18.4722 14.7499C18.0833 15.1388 17.6111 15.3333 17.0555 15.3333ZM7.83484 7.84427C7.14484 7.84427 6.5535 7.5986 6.06084 7.10727C5.56839 6.61593 5.32217 6.02515 5.32217 5.33493C5.32217 4.64493 5.56784 4.0536 6.05917 3.56093C6.5505 3.06849 7.14128 2.82227 7.8315 2.82227C8.5215 2.82227 9.11284 3.06793 9.6055 3.55927C10.0979 4.0506 10.3442 4.64138 10.3442 5.3316C10.3442 6.0216 10.0985 6.61293 9.60717 7.1056C9.11584 7.59804 8.52506 7.84427 7.83484 7.84427ZM5.38884 29.3333V19.7776H3.1665V11.5556C3.1665 10.9445 3.38406 10.4213 3.81917 9.98593C4.2545 9.55082 4.77773 9.33327 5.38884 9.33327H10.2775C10.8886 9.33327 11.4118 9.55082 11.8472 9.98593C12.2823 10.4213 12.4998 10.9445 12.4998 11.5556V19.7776H10.2775V29.3333H5.38884ZM15.1665 29.3333V23.7776H13.6108V18.3109C13.6108 17.8543 13.7707 17.466 14.0905 17.1463C14.4103 16.8265 14.7986 16.6666 15.2555 16.6666H18.8555C19.3122 16.6666 19.7004 16.8265 20.0202 17.1463C20.3399 17.466 20.4998 17.8543 20.4998 18.3109V23.7776H18.9442V29.3333H15.1665Z" fill="#F7F7F7"/>
</g>
</svg>
