<svg width="32" height="32" viewBox="0 0 32 32" fill="none" xmlns="http://www.w3.org/2000/svg">
<mask id="mask0_121_1128" style="mask-type:alpha" maskUnits="userSpaceOnUse" x="0" y="0" width="32" height="32">
<rect width="32" height="32" fill="#D9D9D9"/>
</mask>
<g mask="url(#mask0_121_1128)">
<path d="M19.4223 15.4C18.9852 15.4 18.6167 15.25 18.3167 14.95C18.0167 14.65 17.8667 14.2814 17.8667 13.8443C17.8667 13.4074 18.0167 13.039 18.3167 12.739C18.6167 12.439 18.9852 12.289 19.4223 12.289C19.8592 12.289 20.2277 12.439 20.5277 12.739C20.8277 13.039 20.9777 13.4074 20.9777 13.8443C20.9777 14.2814 20.8277 14.65 20.5277 14.95C20.2277 15.25 19.8592 15.4 19.4223 15.4ZM12.5557 15.4C12.1186 15.4 11.75 15.25 11.45 14.95C11.15 14.65 11 14.2814 11 13.8443C11 13.4074 11.15 13.039 11.45 12.739C11.75 12.439 12.1186 12.289 12.5557 12.289C12.9926 12.289 13.361 12.439 13.661 12.739C13.961 13.039 14.111 13.4074 14.111 13.8443C14.111 14.2814 13.961 14.65 13.661 14.95C13.361 15.25 12.9926 15.4 12.5557 15.4ZM16 22.5333C14.726 22.5333 13.5686 22.1889 12.5277 21.5C11.487 20.8111 10.6889 19.9037 10.1333 18.7777H21.8667C21.3111 19.9037 20.513 20.8111 19.4723 21.5C18.4314 22.1889 17.274 22.5333 16 22.5333ZM16 28C14.3482 28 12.7946 27.6833 11.339 27.05C9.88345 26.4167 8.613 25.5574 7.52767 24.4723C6.44256 23.387 5.58333 22.1166 4.95 20.661C4.31667 19.2054 4 17.6518 4 16C4 14.3482 4.31667 12.7946 4.95 11.339C5.58333 9.88344 6.44256 8.613 7.52767 7.52767C8.613 6.44256 9.88345 5.58333 11.339 4.95C12.7946 4.31667 14.3482 4 16 4C17.6518 4 19.2054 4.31667 20.661 4.95C22.1166 5.58333 23.387 6.44256 24.4723 7.52767C25.5574 8.613 26.4167 9.88344 27.05 11.339C27.6833 12.7946 28 14.3482 28 16C28 17.6518 27.6833 19.2054 27.05 20.661C26.4167 22.1166 25.5574 23.387 24.4723 24.4723C23.387 25.5574 22.1166 26.4167 20.661 27.05C19.2054 27.6833 17.6518 28 16 28ZM16 25.7777C18.6816 25.7777 20.9816 24.8259 22.9 22.9223C24.8184 21.0186 25.7777 18.7259 25.7777 16.0443C25.7777 13.363 24.8296 11.0371 22.9333 9.06667C21.0371 7.09622 18.7112 6.111 15.9557 6.111H15.4223C15.2741 6.111 15.0963 6.12589 14.889 6.15567C14.8148 6.31856 14.7592 6.50744 14.7223 6.72233C14.6852 6.937 14.6667 7.13322 14.6667 7.311C14.6667 7.837 14.8426 8.27589 15.1943 8.62767C15.5463 8.97967 15.9852 9.15567 16.511 9.15567C16.7554 9.15567 16.9648 9.13344 17.139 9.089C17.313 9.04456 17.4814 9.02233 17.6443 9.02233C17.8814 9.02233 18.0814 9.09267 18.2443 9.23333C18.4074 9.374 18.489 9.56289 18.489 9.8C18.489 10.2073 18.2982 10.4981 17.9167 10.6723C17.5351 10.8463 17.0666 10.9333 16.511 10.9333C15.4963 10.9333 14.639 10.5833 13.939 9.88333C13.239 9.18333 12.889 8.32589 12.889 7.311C12.889 7.21478 12.8927 7.09633 12.9 6.95567C12.9073 6.81478 12.9296 6.68878 12.9667 6.57767C11.0038 7.28878 9.389 8.47767 8.12233 10.1443C6.85567 11.811 6.22233 13.7481 6.22233 15.9557C6.22233 18.637 7.18156 20.9443 9.1 22.8777C11.0184 24.811 13.3184 25.7777 16 25.7777Z" fill="#F7F7F7"/>
</g>
</svg>
