<svg width="33" height="32" viewBox="0 0 33 32" fill="none" xmlns="http://www.w3.org/2000/svg">
<mask id="mask0_118_914" style="mask-type:alpha" maskUnits="userSpaceOnUse" x="0" y="0" width="33" height="32">
<rect x="0.5" width="32" height="32" fill="#D9D9D9"/>
</mask>
<g mask="url(#mask0_118_914)">
<path d="M18.7225 17.7776C17.6114 17.7776 16.6669 17.3887 15.8892 16.6109C15.1114 15.8331 14.7225 14.8887 14.7225 13.7776C14.7225 12.6665 15.1114 11.722 15.8892 10.9443C16.6669 10.1665 17.6114 9.77759 18.7225 9.77759C19.8336 9.77759 20.7781 10.1665 21.5558 10.9443C22.3336 11.722 22.7225 12.6665 22.7225 13.7776C22.7225 14.8887 22.3336 15.8331 21.5558 16.6109C20.7781 17.3887 19.8336 17.7776 18.7225 17.7776ZM8.50016 22.2223C7.88905 22.2223 7.36594 22.0046 6.93083 21.5693C6.4955 21.1341 6.27783 20.611 6.27783 19.9999V7.55558C6.27783 6.94447 6.4955 6.42125 6.93083 5.98592C7.36594 5.55081 7.88905 5.33325 8.50016 5.33325H28.9445C29.5556 5.33325 30.0788 5.55081 30.5142 5.98592C30.9493 6.42125 31.1668 6.94447 31.1668 7.55558V19.9999C31.1668 20.611 30.9493 21.1341 30.5142 21.5693C30.0788 22.0046 29.5556 22.2223 28.9445 22.2223H8.50016ZM11.6112 19.9999H25.8335C25.8335 19.1333 26.1354 18.398 26.7392 17.7943C27.3427 17.1907 28.0778 16.8889 28.9445 16.8889V10.6666C28.0778 10.6666 27.3427 10.3647 26.7392 9.76092C26.1354 9.15736 25.8335 8.42225 25.8335 7.55558H11.6112C11.6112 8.42225 11.3094 9.15736 10.7058 9.76092C10.1021 10.3647 9.36683 10.6666 8.50016 10.6666V16.8889C9.36683 16.8889 10.1021 17.1907 10.7058 17.7943C11.3094 18.398 11.6112 19.1333 11.6112 19.9999ZM27.1668 26.6666H4.05583C3.44472 26.6666 2.9215 26.449 2.48616 26.0139C2.05105 25.5786 1.8335 25.0554 1.8335 24.4443V9.33325H4.05583V24.4443H27.1668V26.6666Z" fill="#F7F7F7"/>
</g>
</svg>
