<svg width="540" height="349" viewBox="0 0 540 349" fill="none" xmlns="http://www.w3.org/2000/svg">
<path fill-rule="evenodd" clip-rule="evenodd" d="M174 265C270.098 265 348 205.678 348 132.5C348 59.3223 270.098 0 174 0C77.9023 0 0 59.3223 0 132.5C0 172.712 23.5232 208.74 60.6626 233.04L65.6001 287.264C66.2983 294.93 75.0334 298.966 81.3237 294.528L128.028 261.578C128.468 261.268 128.873 260.932 129.243 260.575C143.524 263.462 158.526 265 174 265Z" fill="url(#paint0_linear_183_197)"/>
<path fill-rule="evenodd" clip-rule="evenodd" d="M402.013 325.668C326.343 325.668 265 278.956 265 221.334C265 163.712 326.343 117 402.013 117C477.682 117 539.025 163.712 539.025 221.334C539.025 253.038 520.455 281.439 491.147 300.574C491.172 301.054 491.163 301.544 491.117 302.044L487.703 339.533C487.005 347.199 478.27 351.235 471.98 346.797L441.221 325.096C439.982 324.222 439.021 323.149 438.33 321.964C426.763 324.379 414.586 325.668 402.013 325.668Z" fill="url(#paint1_linear_183_197)"/>
<defs>
<linearGradient id="paint0_linear_183_197" x1="174" y1="0" x2="174" y2="296.369" gradientUnits="userSpaceOnUse">
<stop offset="0.245" stop-color="white" stop-opacity="0"/>
<stop offset="1" stop-color="#EE212F" stop-opacity="0.65"/>
</linearGradient>
<linearGradient id="paint1_linear_183_197" x1="402.013" y1="117" x2="402.013" y2="348.638" gradientUnits="userSpaceOnUse">
<stop offset="0.25" stop-color="white" stop-opacity="0"/>
<stop offset="1" stop-color="#EE212F" stop-opacity="0.65"/>
</linearGradient>
</defs>
</svg>
